<?xml version="1.0" standalone="no"?>
<!DOCTYPE svg PUBLIC "-//W3C//DTD SVG 20010904//EN"
 "http://www.w3.org/TR/2001/REC-SVG-20010904/DTD/svg10.dtd">
<svg version="1.0" xmlns="http://www.w3.org/2000/svg"
 width="260.000000pt" height="260.000000pt" viewBox="0 0 260.000000 260.000000"
 preserveAspectRatio="xMidYMid meet">
<metadata>
Created by potrace 1.11, written by Peter Selinger 2001-2013
</metadata>
<g transform="translate(0.000000,260.000000) scale(0.100000,-0.100000)"
fill="#000000" stroke="none">
<path d="M2129 1718 c-50 -11 -126 -63 -171 -118 -47 -59 -70 -141 -76 -265
-9 -228 52 -366 193 -435 44 -21 64 -24 155 -24 94 0 111 3 162 28 72 34 133
102 153 169 23 78 21 87 -22 88 -51 1 -127 -2 -131 -6 -2 -1 -5 -15 -8 -31
-11 -66 -76 -114 -152 -114 -123 0 -172 75 -176 270 -3 105 8 179 31 224 21
40 36 54 77 71 100 42 207 -9 222 -105 l6 -37 87 1 c86 1 86 1 82 26 -12 86
-68 178 -135 219 -73 45 -195 61 -297 39z"/>
<path d="M74 1300 l0 -420 90 0 89 0 -7 233 c-4 127 -9 266 -11 307 l-4 75 39
-105 c82 -220 139 -377 161 -442 l23 -68 61 0 61 0 52 148 c29 81 57 156 62
167 4 11 21 56 36 100 15 44 33 94 40 110 7 17 17 44 22 60 8 22 9 -13 5 -125
-4 -85 -7 -222 -7 -305 l-1 -150 87 -3 86 -3 0 421 -1 420 -112 0 -113 0 -25
-67 c-14 -38 -46 -126 -70 -198 -59 -169 -116 -327 -120 -331 -2 -2 -38 94
-80 214 -43 119 -90 253 -106 297 l-28 80 -114 3 -115 3 0 -421z"/>
<path d="M1351 1683 c-21 -59 -166 -450 -236 -635 l-62 -168 93 0 93 0 28 88
28 87 152 3 152 3 28 -88 28 -88 94 -3 c86 -3 93 -1 86 15 -4 10 -74 199 -157
421 l-150 402 -82 0 -82 0 -13 -37z m145 -325 c26 -79 49 -149 52 -155 3 -10
-21 -13 -101 -13 l-105 0 51 155 c28 85 52 155 53 155 2 0 24 -64 50 -142z"/>
<path d="M1020 1340 c-11 -11 -20 -29 -20 -40 0 -11 9 -29 20 -40 11 -11 29
-20 40 -20 11 0 29 9 40 20 11 11 20 29 20 40 0 11 -9 29 -20 40 -11 11 -29
20 -40 20 -11 0 -29 -9 -40 -20z"/>
<path d="M1750 1340 c-27 -27 -26 -65 2 -84 30 -21 54 -20 78 4 27 27 26 65
-2 84 -30 21 -54 20 -78 -4z"/>
</g>
</svg>
